# Blender v2.79 (sub 0) OBJ File: 'Moon.blend'
# www.blender.org
mtllib Moon.mtl
o Icosphere
v 0.000000 -0.188675 0.000000
v -0.878358 1.568054 2.703354
v -2.842477 1.568068 0.000000
v -0.878358 1.568054 -2.703354
v 2.299616 1.568055 -1.670749
v 0.878358 4.410574 2.703354
v -2.299616 4.410573 1.670749
v -2.299616 4.410573 -1.670749
v 0.878358 4.410574 -2.703354
v 2.842477 4.410561 0.000000
v 0.000000 6.167303 0.000000
v -0.516282 0.285944 1.588979
v 1.351671 0.285944 0.982035
v 0.835394 1.318526 2.571030
v 2.703350 1.318531 0.000000
v 1.351671 0.285944 -0.982035
v -1.670763 0.285952 0.000000
v -2.187058 1.318530 1.588985
v -0.516282 0.285944 -1.588979
v -2.187058 1.318530 -1.588985
v 0.835394 1.318526 -2.571030
v 3.022451 2.989314 0.982039
v 3.022451 2.989314 -0.982039
v 0.000000 2.989314 3.177989
v 1.867976 2.989314 2.571046
v -3.022451 2.989314 0.982039
v -1.867976 2.989314 2.571046
v -1.867976 2.989314 -2.571046
v -3.022451 2.989314 -0.982039
v 1.867976 2.989314 -2.571046
v 0.000000 2.989314 -3.177989
v 2.187058 4.660098 1.588985
v -0.835394 4.660102 2.571030
v -0.835394 4.660102 -2.571030
v 2.187058 4.660098 -1.588985
v 0.516282 5.692684 1.588979
v 1.670763 5.692676 0.000000
v -1.351671 5.692684 0.982035
v -1.351671 5.692684 -0.982035
v 0.516282 5.692684 -1.588979
v -2.736448 2.812552 -0.982039
v -2.013612 4.233811 -1.670749
v -2.417346 4.483335 0.000000
v -1.065667 5.515922 0.785162
v -2.013612 4.233811 1.473876
v -1.065667 5.515922 -0.982035
v -2.736448 2.812552 0.982039
v 1.135867 0.419320 0.825245
v 2.083812 1.701430 1.513960
v 2.487546 1.451906 -0.156789
v 2.806648 3.122689 0.825249
v 0.619590 1.451901 2.414241
v 1.652172 3.122689 2.414257
vn 0.1024 -0.9435 0.3151
vn 0.4472 -0.2764 -0.8507
vn -0.2680 -0.9435 0.1947
vn -0.2680 -0.9435 -0.1947
vn 0.1024 -0.9435 -0.3151
vn -0.6708 -0.2764 0.6882
vn 0.0247 -0.3304 0.9435
vn -0.8897 -0.3304 0.3151
vn -0.5746 -0.3304 -0.7488
vn 0.5346 -0.3304 -0.7779
vn -0.0528 0.7236 0.6882
vn -0.3066 -0.1256 0.9435
vn -0.9921 -0.1256 0.0000
vn -0.3066 -0.1256 -0.9435
vn 0.8026 -0.1256 -0.5831
vn 0.4089 0.6617 0.6284
vn -0.4713 0.6617 0.5831
vn -0.2091 -0.3383 0.9175
vn 0.0385 0.6617 -0.7488
vn 0.7240 0.6617 -0.1947
vn 0.2680 0.9435 -0.1947
vn 0.4911 0.7947 -0.3568
vn 0.4089 0.6617 -0.6284
vn -0.1024 0.9435 -0.3151
vn -0.1876 0.7947 -0.5773
vn -0.4713 0.6617 -0.5831
vn -0.3313 0.9435 0.0000
vn 0.2091 0.3383 0.9175
vn -0.5736 -0.0159 -0.8190
vn -0.1024 0.9435 0.3151
vn -0.1876 0.7947 0.5773
vn 0.0385 0.6617 0.7488
vn 0.2680 0.9435 0.1947
vn 0.4911 0.7947 0.3568
vn 0.7240 0.6617 0.1947
vn 0.8897 0.3304 -0.3151
vn 0.7947 0.1876 -0.5773
vn 0.5746 0.3304 -0.7488
vn -0.0247 0.3304 -0.9435
vn -0.3035 0.1876 -0.9342
vn -0.5346 0.3304 -0.7779
vn 0.5257 0.8506 0.0000
vn -0.0606 0.4090 -0.9105
vn -0.5257 -0.8506 0.0000
vn -0.5346 0.3304 0.7779
vn -0.3035 0.1876 0.9342
vn -0.0247 0.3304 0.9435
vn 0.5746 0.3304 0.7488
vn 0.7947 0.1876 0.5773
vn 0.8897 0.3304 0.3151
vn 0.3066 0.1256 -0.9435
vn 0.3035 -0.1876 -0.9342
vn 0.0247 -0.3304 -0.9435
vn -0.8026 0.1256 -0.5831
vn -0.7947 -0.1876 -0.5773
vn -0.8897 -0.3304 -0.3151
vn -0.8026 0.1256 0.5831
vn -0.7947 -0.1876 0.5773
vn -0.5746 -0.3304 0.7488
vn 0.3066 0.1256 0.9435
vn 0.3035 -0.1876 0.9342
vn 0.6382 0.7236 -0.2629
vn 0.9921 0.1256 0.0000
vn 0.9822 -0.1876 0.0000
vn 0.9050 -0.3304 -0.2680
vn 0.4713 -0.6617 -0.5831
vn 0.1876 -0.7947 -0.5773
vn -0.0385 -0.6617 -0.7488
vn -0.4089 -0.6617 -0.6284
vn -0.4911 -0.7947 -0.3568
vn -0.7240 -0.6617 -0.1947
vn -0.7240 -0.6617 0.1947
vn -0.4911 -0.7947 0.3568
vn -0.4089 -0.6617 0.6284
vn 0.7002 -0.6617 -0.2680
vn 0.6071 -0.7947 0.0000
vn 0.3313 -0.9435 0.0000
vn -0.0385 -0.6617 0.7488
vn 0.1876 -0.7947 0.5773
vn -0.3618 -0.8944 -0.2629
vn -0.7002 0.6617 -0.2680
vn -0.6071 0.7947 0.0000
vn -0.6830 0.6660 0.2998
vn -0.9050 0.3304 -0.2680
vn -0.9822 0.1876 0.0000
vn -0.8879 0.3471 0.3020
vn 0.7002 -0.6617 0.2680
vn 0.9050 -0.3304 0.2680
vn 0.8026 -0.1256 0.5831
vn 0.5346 -0.3304 0.7779
vn 0.4713 -0.6617 0.5831
usemtl None
s off
f 1//1 13//1 12//1
f 25//2 14//2 52//2 53//2
f 1//3 12//3 17//3
f 1//4 17//4 19//4
f 1//5 19//5 16//5
f 15//6 22//6 51//6 50//6
f 2//7 14//7 24//7
f 3//8 18//8 26//8
f 4//9 20//9 28//9
f 5//10 21//10 30//10
f 13//11 15//11 50//11 48//11
f 2//12 24//12 27//12
f 3//13 26//13 29//13
f 4//14 28//14 31//14
f 5//15 30//15 23//15
f 6//16 32//16 36//16
f 7//17 33//17 38//17
f 39//18 8//18 42//18 46//18
f 9//19 34//19 40//19
f 10//20 35//20 37//20
f 37//21 40//21 11//21
f 37//22 35//22 40//22
f 35//23 9//23 40//23
f 40//24 39//24 11//24
f 40//25 34//25 39//25
f 34//26 8//26 39//26
f 39//27 38//27 11//27
f 8//28 29//28 41//28 42//28
f 7//29 38//29 44//29 45//29
f 38//30 36//30 11//30
f 38//31 33//31 36//31
f 33//32 6//32 36//32
f 36//33 37//33 11//33
f 36//34 32//34 37//34
f 32//35 10//35 37//35
f 23//36 35//36 10//36
f 23//37 30//37 35//37
f 30//38 9//38 35//38
f 31//39 34//39 9//39
f 31//40 28//40 34//40
f 28//41 8//41 34//41
f 29//42 26//42 47//42 41//42
f 26//43 7//43 45//43 47//43
f 38//44 39//44 46//44 44//44
f 27//45 33//45 7//45
f 27//46 24//46 33//46
f 24//47 6//47 33//47
f 25//48 32//48 6//48
f 25//49 22//49 32//49
f 22//50 10//50 32//50
f 30//51 31//51 9//51
f 30//52 21//52 31//52
f 21//53 4//53 31//53
f 28//54 29//54 8//54
f 28//55 20//55 29//55
f 20//56 3//56 29//56
f 26//57 27//57 7//57
f 26//58 18//58 27//58
f 18//59 2//59 27//59
f 24//60 25//60 6//60
f 24//61 14//61 25//61
f 14//62 13//62 48//62 52//62
f 22//63 23//63 10//63
f 22//64 15//64 23//64
f 15//65 5//65 23//65
f 16//66 21//66 5//66
f 16//67 19//67 21//67
f 19//68 4//68 21//68
f 19//69 20//69 4//69
f 19//70 17//70 20//70
f 17//71 3//71 20//71
f 17//72 18//72 3//72
f 17//73 12//73 18//73
f 12//74 2//74 18//74
f 15//75 16//75 5//75
f 15//76 13//76 16//76
f 13//77 1//77 16//77
f 12//78 14//78 2//78
f 12//79 13//79 14//79
f 22//80 25//80 53//80 51//80
f 42//81 43//81 46//81
f 46//82 43//82 44//82
f 43//83 45//83 44//83
f 41//84 43//84 42//84
f 41//85 47//85 43//85
f 47//86 45//86 43//86
f 49//87 48//87 50//87
f 49//88 50//88 51//88
f 49//89 51//89 53//89
f 52//90 49//90 53//90
f 48//91 49//91 52//91
