# Blender v2.79 (sub 0) OBJ File: 'type6.blend'
# www.blender.org
mtllib player.mtl
o Cube_Cube.001
v -0.817149 2.692316 -0.554349
v -0.754710 2.695988 -0.703909
v -0.043133 2.645996 -1.937896
v -0.043133 2.627132 -1.937896
v -0.079487 2.624168 -1.579348
v -0.079487 2.656193 -1.579347
v -0.332668 2.702108 -1.117683
v -0.332668 2.717634 -1.117683
v -0.001584 2.594501 -1.561236
v -0.001584 2.711195 -1.866545
v -0.203063 2.861740 -0.812320
v -0.226278 2.627132 -0.812320
v -0.021410 2.594501 -1.042672
v -0.028275 2.834641 -1.505610
v -0.386964 2.668021 -0.876700
v -0.172081 2.881840 -1.028544
v -0.890895 2.695457 -0.685368
v -0.842498 2.730418 -0.728327
v -0.448651 2.244803 -0.594708
v -0.452920 3.248228 -0.661761
v -0.021800 2.627132 -1.772890
v -0.487372 2.861740 -0.767063
v -0.049668 2.594501 -1.383541
v -0.514874 2.684607 -0.858478
v -0.021800 2.670030 -1.901261
v -0.487372 2.627132 -0.767063
v -0.077583 2.782073 -1.541487
v -0.404543 2.801945 -0.936442
v -0.475271 2.607692 -0.761399
v -0.509735 2.807250 -0.832447
v -0.007896 2.687568 -1.877384
v -0.344739 2.627132 -0.798190
v -0.056664 2.810065 -1.516812
v -0.244659 2.856896 -0.999789
v -0.396111 2.939987 -0.780464
v -0.007896 2.604689 -1.627317
v -0.328772 2.861740 -0.798190
v -0.030233 2.594501 -1.149096
v -0.426899 2.673199 -0.871010
v -0.393053 2.564066 -0.778164
v 0.020478 2.762747 -1.765101
v -0.081288 2.627132 -0.806409
v 0.009428 2.875377 -1.466456
v -0.074546 2.937866 -0.998808
v 0.020478 2.563143 -1.415066
v -0.136117 2.861740 -0.806409
v 0.009428 2.563143 -1.013777
v -0.089272 2.658657 -0.875869
v -0.170659 2.968845 -0.808860
v -0.135387 2.565777 -0.839188
v 0.913660 2.692316 -0.554349
v 0.851221 2.695988 -0.703909
v 0.048256 2.627132 -2.349454
v 0.048256 2.629647 -2.349454
v 0.048256 2.523662 -1.231030
v 0.048256 2.822319 -1.731695
v 0.139644 2.645996 -1.937896
v 0.139644 2.627132 -1.937896
v 0.048256 2.523662 -1.522163
v 0.048256 2.718624 -2.095942
v 0.048256 2.627132 -0.924364
v 0.048256 2.861740 -0.924364
v 0.175998 2.624168 -1.579348
v 0.175998 2.656193 -1.579347
v 0.048256 2.921892 -1.417160
v 0.048256 2.582928 -0.977396
v 0.429179 2.702108 -1.117683
v 0.048256 3.008405 -1.054455
v 0.048256 2.646868 -0.970523
v 0.429179 2.717634 -1.117683
v 0.048256 2.523662 -1.973335
v 0.098095 2.594501 -1.561236
v 0.098095 2.711195 -1.866545
v 0.299574 2.861740 -0.812320
v 0.048256 2.674703 -2.234198
v 0.322789 2.627132 -0.812320
v 0.117921 2.594501 -1.042672
v 0.124786 2.834641 -1.505610
v 0.483475 2.668021 -0.876700
v 0.268592 2.881840 -1.028544
v 0.987406 2.695457 -0.685368
v 0.048256 2.896116 -0.959093
v 0.048256 2.627132 -0.999876
v 0.939009 2.730418 -0.728327
v 0.545162 2.244803 -0.594708
v 0.549431 3.248228 -0.661761
v 0.048256 2.627132 -2.156337
v 0.118311 2.627132 -1.772890
v 0.583883 2.861740 -0.767063
v 0.146179 2.594501 -1.383541
v 0.611385 2.684607 -0.858478
v 0.118311 2.670030 -1.901261
v 0.048256 2.656888 -2.303991
v 0.583883 2.627132 -0.767063
v 0.174095 2.782073 -1.541487
v 0.501054 2.801945 -0.936442
v 0.571783 2.607692 -0.761399
v 0.606246 2.807250 -0.832447
v 0.104407 2.687568 -1.877384
v 0.048256 2.665286 -2.260160
v 0.441250 2.627132 -0.798190
v 0.153175 2.810065 -1.516812
v 0.341170 2.856896 -0.999789
v 0.492622 2.939987 -0.780464
v 0.048256 2.555967 -2.030471
v 0.104407 2.604689 -1.627317
v 0.425284 2.861740 -0.798190
v 0.126744 2.594501 -1.149096
v 0.523410 2.673199 -0.871010
v 0.489564 2.564066 -0.778164
v 0.076033 2.762747 -1.765101
v 0.048256 2.694145 -2.172997
v 0.177799 2.627132 -0.806409
v 0.087083 2.875377 -1.466456
v 0.171057 2.937866 -0.998808
v 0.048256 2.523662 -1.773617
v 0.076033 2.563143 -1.415066
v 0.232628 2.861740 -0.806409
v 0.087083 2.563143 -1.013777
v 0.185783 2.658657 -0.875869
v 0.267170 2.968845 -0.808860
v 0.231898 2.565777 -0.839188
vn -0.9762 0.0000 -0.2168
vn -0.8179 -0.5754 0.0000
vn -0.8768 0.0000 -0.4808
vn 0.3128 0.4448 0.8392
vn -0.4899 -0.8690 0.0704
vn -0.3225 0.9276 0.1883
vn -0.7767 0.6048 -0.1759
vn 0.4186 -0.8638 0.2803
vn -0.9949 0.0000 -0.1009
vn -0.9598 0.2293 -0.1621
vn 0.2859 -0.5411 0.7909
vn -0.8507 0.2163 -0.4791
vn -0.6076 -0.0890 -0.7892
vn -0.4927 0.8428 -0.2166
vn -0.1762 -0.9837 0.0347
vn -0.4991 0.8064 -0.3172
vn 0.0035 0.4691 0.8831
vn 0.2894 -0.1183 0.9499
vn -0.3515 -0.9359 -0.0244
vn -0.0557 -0.0038 0.9984
vn -0.9359 -0.3451 -0.0711
vn 0.3963 0.8527 -0.3403
vn -0.9991 0.0341 -0.0257
vn 0.0248 0.9773 0.2104
vn -0.6282 0.2084 -0.7496
vn -0.3569 0.8048 -0.4744
vn -0.4824 0.6687 -0.5658
vn -0.1725 -0.9329 -0.3163
vn 0.0000 -1.0000 -0.0000
vn -0.1501 -0.9869 -0.0599
vn -0.1266 -0.9738 0.1889
vn -0.5511 -0.7908 -0.2665
vn -0.4478 0.8566 -0.2564
vn -0.5464 0.7698 -0.3299
vn -0.6716 0.7274 -0.1407
vn -0.3028 0.4929 0.8157
vn 0.2024 -0.0069 0.9793
vn 0.1150 -0.0096 0.9933
vn 0.0238 -0.3260 0.9451
vn -0.9226 0.3521 -0.1579
vn -0.7073 0.6432 -0.2932
vn -0.4606 0.8560 -0.2347
vn -0.6986 0.2171 -0.6818
vn -0.3387 -0.7343 -0.5883
vn -0.8814 -0.4586 -0.1130
vn -0.0664 -0.9964 -0.0530
vn 0.2398 0.1911 0.9518
vn -0.1656 -0.9858 0.0295
vn -0.0803 -0.5115 -0.8555
vn 0.2057 0.9207 0.3317
vn 0.5993 0.0700 0.7975
vn 0.5628 0.3359 0.7553
vn -0.7300 0.6417 -0.2352
vn -0.5798 0.7897 -0.2004
vn -0.1442 -0.9418 0.3036
vn 0.3719 0.1499 0.9161
vn -0.7294 -0.6836 -0.0245
vn 0.9762 0.0000 -0.2168
vn 0.8179 -0.5754 0.0000
vn 0.8768 0.0000 -0.4808
vn -0.3128 0.4448 0.8392
vn 0.4899 -0.8690 0.0704
vn 0.3225 0.9276 0.1883
vn 0.7767 0.6048 -0.1759
vn -0.4186 -0.8638 0.2803
vn 0.9949 0.0000 -0.1009
vn -1.0000 -0.0000 0.0000
vn 0.9598 0.2293 -0.1621
vn -0.2859 -0.5411 0.7909
vn 0.8507 0.2163 -0.4791
vn 0.6076 -0.0890 -0.7892
vn 0.4927 0.8428 -0.2166
vn 0.1762 -0.9837 0.0347
vn 0.4991 0.8064 -0.3172
vn -0.0035 0.4691 0.8831
vn -0.2894 -0.1183 0.9499
vn 0.3515 -0.9359 -0.0244
vn 0.0557 -0.0038 0.9984
vn 0.9359 -0.3451 -0.0711
vn -0.3963 0.8527 -0.3403
vn 0.9991 0.0341 -0.0257
vn -0.0248 0.9773 0.2104
vn 0.6282 0.2084 -0.7496
vn 0.3569 0.8048 -0.4744
vn 0.4824 0.6687 -0.5658
vn 0.1725 -0.9329 -0.3163
vn 0.1501 -0.9869 -0.0599
vn 0.1266 -0.9738 0.1889
vn 0.5511 -0.7908 -0.2665
vn 0.4478 0.8566 -0.2564
vn 0.5464 0.7698 -0.3299
vn 0.6716 0.7274 -0.1407
vn 0.3028 0.4929 0.8157
vn -0.2024 -0.0069 0.9793
vn -0.1150 -0.0096 0.9933
vn -0.0238 -0.3260 0.9451
vn 0.9226 0.3521 -0.1579
vn 0.7073 0.6432 -0.2932
vn 0.4606 0.8560 -0.2347
vn 0.6986 0.2171 -0.6818
vn 0.3387 -0.7343 -0.5883
vn 0.8814 -0.4586 -0.1130
vn 0.0664 -0.9964 -0.0530
vn -0.2398 0.1911 0.9518
vn 1.0000 0.0000 0.0000
vn 0.1656 -0.9858 0.0295
vn 0.0803 -0.5115 -0.8555
vn -0.2057 0.9207 0.3317
vn -0.5993 0.0700 0.7975
vn -0.5628 0.3359 0.7553
vn 0.7300 0.6417 -0.2352
vn 0.5798 0.7897 -0.2003
vn 0.1442 -0.9418 0.3036
vn -0.3719 0.1499 0.9161
vn 0.7294 -0.6836 -0.0245
vn -0.7771 0.6086 -0.1602
vn -0.8738 0.4670 -0.1357
vn 0.7771 0.6086 -0.1602
vn 0.8738 0.4670 -0.1356
usemtl Material.001
s off
f 4//1 3//1 54//1 53//1
f 116//2 59//2 55//2 45//2
f 7//3 8//3 6//3 5//3
f 26//4 22//4 2//4 1//4
f 45//5 55//5 66//5 47//5
f 30//6 18//6 2//6 22//6
f 93//7 54//7 3//7 25//7
f 50//8 83//8 61//8 42//8
f 5//9 6//9 3//9 4//9
f 25//10 3//10 6//10 27//10
f 47//11 66//11 69//11 48//11
f 27//12 6//12 8//12 28//12
f 17//13 18//13 8//13 7//13
f 43//14 14//14 16//14 44//14
f 38//15 13//15 15//15 39//15
f 41//16 10//16 14//16 43//16
f 40//17 19//17 12//17 32//17
f 49//18 20//18 11//18 46//18
f 36//19 9//19 13//19 38//19
f 42//20 46//20 11//20 12//20
f 105//21 71//21 9//21 36//21
f 44//22 16//22 20//22 49//22
f 39//23 15//23 19//23 40//23
f 1//24 2//24 18//24 17//24
f 48//25 69//25 83//25 50//25
f 28//26 8//26 18//26 30//26
f 34//27 28//27 30//27 35//27
f 7//28 24//28 29//28 17//28
f 53//29 87//29 21//29 4//29
f 4//30 21//30 23//30 5//30
f 17//31 29//31 26//31 1//31
f 5//32 23//32 24//32 7//32
f 33//33 27//33 28//33 34//33
f 31//34 25//34 27//34 33//34
f 100//35 93//35 25//35 31//35
f 35//36 30//36 22//36 37//36
f 32//37 37//37 22//37 26//37
f 12//38 11//38 37//38 32//38
f 20//39 35//39 37//39 11//39
f 75//40 100//40 31//40 10//40
f 10//41 31//41 33//41 14//41
f 14//42 33//42 34//42 16//42
f 16//43 34//43 35//43 20//43
f 24//44 39//44 40//44 29//44
f 87//45 105//45 36//45 21//45
f 21//46 36//46 38//46 23//46
f 29//47 40//47 32//47 26//47
f 23//48 38//48 39//48 24//48
f 15//49 48//49 50//49 19//49
f 68//50 44//50 49//50 82//50
f 61//51 62//51 46//51 42//51
f 82//52 49//52 46//52 62//52
f 56//53 41//53 43//53 65//53
f 65//54 43//54 44//54 68//54
f 13//55 47//55 48//55 15//55
f 19//56 50//56 42//56 12//56
f 9//57 45//57 47//57 13//57
f 71//2 116//2 45//2 9//2
f 58//58 53//58 54//58 57//58
f 116//59 117//59 55//59 59//59
f 67//60 63//60 64//60 70//60
f 94//61 51//61 52//61 89//61
f 117//62 119//62 66//62 55//62
f 98//63 89//63 52//63 84//63
f 93//64 92//64 57//64 54//64
f 122//65 113//65 61//65 83//65
f 63//66 58//66 57//66 64//66
f 116//67 59//67 60//67 112//67
f 92//68 95//68 64//68 57//68
f 119//69 120//69 69//69 66//69
f 95//70 96//70 70//70 64//70
f 81//71 67//71 70//71 84//71
f 114//72 115//72 80//72 78//72
f 108//73 109//73 79//73 77//73
f 111//74 114//74 78//74 73//74
f 105//67 71//67 75//67 100//67
f 110//75 101//75 76//75 85//75
f 121//76 118//76 74//76 86//76
f 106//77 108//77 77//77 72//77
f 113//78 76//78 74//78 118//78
f 105//79 106//79 72//79 71//79
f 115//80 121//80 86//80 80//80
f 109//81 110//81 85//81 79//81
f 51//82 81//82 84//82 52//82
f 120//83 122//83 83//83 69//83
f 96//84 98//84 84//84 70//84
f 103//85 104//85 98//85 96//85
f 67//86 81//86 97//86 91//86
f 53//29 58//29 88//29 87//29
f 58//87 63//87 90//87 88//87
f 81//88 51//88 94//88 97//88
f 53//67 87//67 93//67 54//67
f 63//89 67//89 91//89 90//89
f 102//90 103//90 96//90 95//90
f 99//91 102//91 95//91 92//91
f 100//92 99//92 92//92 93//92
f 104//93 107//93 89//93 98//93
f 101//94 94//94 89//94 107//94
f 76//95 101//95 107//95 74//95
f 86//96 74//96 107//96 104//96
f 75//97 73//97 99//97 100//97
f 73//98 78//98 102//98 99//98
f 78//99 80//99 103//99 102//99
f 80//100 86//100 104//100 103//100
f 91//101 97//101 110//101 109//101
f 87//102 88//102 106//102 105//102
f 88//103 90//103 108//103 106//103
f 97//104 94//104 101//104 110//104
f 87//105 105//105 100//105 93//105
f 90//106 91//106 109//106 108//106
f 79//107 85//107 122//107 120//107
f 68//108 82//108 121//108 115//108
f 61//109 113//109 118//109 62//109
f 82//110 62//110 118//110 121//110
f 56//111 65//111 114//111 111//111
f 65//112 68//112 115//112 114//112
f 77//113 79//113 120//113 119//113
f 71//67 116//67 112//67 75//67
f 85//114 76//114 113//114 122//114
f 72//115 77//115 119//115 117//115
f 71//59 72//59 117//59 116//59
usemtl Material.002
f 112//116 75//116 10//116 41//116
f 60//117 112//117 41//117 56//117
f 112//118 111//118 73//118 75//118
f 60//119 56//119 111//119 112//119
